<svg width="16" height="16" viewBox="0 0 16 16" fill="none" xmlns="http://www.w3.org/2000/svg">
<g clip-path="url(#clip0_2005_1763)">
<path d="M9.42562 8.23687C9.4705 8.30942 9.49607 8.39225 9.4999 8.47747C9.50373 8.56269 9.48569 8.64747 9.4475 8.72375L8.4475 10.7238C8.38816 10.8424 8.2841 10.9327 8.15822 10.9746C8.03233 11.0166 7.89493 11.0068 7.77625 10.9475C7.65757 10.8882 7.56732 10.7841 7.52535 10.6582C7.48339 10.5323 7.49316 10.3949 7.5525 10.2762L8.19125 9H7C6.91473 9.00006 6.83086 8.97831 6.75636 8.93682C6.68186 8.89533 6.61921 8.83548 6.57437 8.76295C6.52952 8.69042 6.50397 8.60763 6.50015 8.52244C6.49632 8.43726 6.51434 8.35251 6.5525 8.27625L7.5525 6.27625C7.61184 6.15757 7.7159 6.06732 7.84178 6.02535C7.96767 5.98339 8.10507 5.99316 8.22375 6.0525C8.34243 6.11184 8.43268 6.2159 8.47465 6.34178C8.51661 6.46767 8.50684 6.60507 8.4475 6.72375L7.80875 8H9C9.08525 7.99992 9.16911 8.02164 9.24361 8.0631C9.3181 8.10456 9.38076 8.16438 9.42562 8.23687ZM6 1H10C10.1326 1 10.2598 0.947322 10.3536 0.853553C10.4473 0.759785 10.5 0.632608 10.5 0.5C10.5 0.367392 10.4473 0.240215 10.3536 0.146447C10.2598 0.0526784 10.1326 0 10 0L6 0C5.86739 0 5.74021 0.0526784 5.64645 0.146447C5.55268 0.240215 5.5 0.367392 5.5 0.5C5.5 0.632608 5.55268 0.759785 5.64645 0.853553C5.74021 0.947322 5.86739 1 6 1ZM12.5 3.5V14C12.5 14.3978 12.342 14.7794 12.0607 15.0607C11.7794 15.342 11.3978 15.5 11 15.5H5C4.60218 15.5 4.22064 15.342 3.93934 15.0607C3.65804 14.7794 3.5 14.3978 3.5 14V3.5C3.5 3.10218 3.65804 2.72064 3.93934 2.43934C4.22064 2.15804 4.60218 2 5 2H11C11.3978 2 11.7794 2.15804 12.0607 2.43934C12.342 2.72064 12.5 3.10218 12.5 3.5ZM11.5 3.5C11.5 3.36739 11.4473 3.24021 11.3536 3.14645C11.2598 3.05268 11.1326 3 11 3H5C4.86739 3 4.74021 3.05268 4.64645 3.14645C4.55268 3.24021 4.5 3.36739 4.5 3.5V14C4.5 14.1326 4.55268 14.2598 4.64645 14.3536C4.74021 14.4473 4.86739 14.5 5 14.5H11C11.1326 14.5 11.2598 14.4473 11.3536 14.3536C11.4473 14.2598 11.5 14.1326 11.5 14V3.5Z" fill="#038C38"/>
</g>
<defs>
<clipPath id="clip0_2005_1763">
<rect width="16" height="16" fill="white"/>
</clipPath>
</defs>
</svg>
