<svg width="33" height="32" viewBox="0 0 33 32" fill="none" xmlns="http://www.w3.org/2000/svg">
<path d="M12.9421 14.5538C13.0942 14.466 13.2204 14.3397 13.3082 14.1876C13.396 14.0356 13.4422 13.8631 13.4421 13.6875V4.6875C13.4412 4.52807 13.4022 4.37116 13.3284 4.22986C13.2545 4.08857 13.148 3.96698 13.0176 3.87524C12.8872 3.7835 12.7367 3.72426 12.5788 3.70248C12.4209 3.68069 12.26 3.69699 12.1096 3.75C9.19086 4.78302 6.73629 6.8233 5.18716 9.50409C3.63803 12.1849 3.09596 15.3303 3.65839 18.375C3.68754 18.5324 3.75408 18.6806 3.8524 18.807C3.95072 18.9334 4.07795 19.0343 4.22339 19.1013C4.35446 19.1625 4.49745 19.1941 4.64214 19.1938C4.81765 19.1938 4.9901 19.1477 5.14214 19.06L12.9421 14.5538ZM11.4421 6.2025V13.11L5.45714 16.5638C5.44214 16.375 5.44214 16.185 5.44214 16C5.44391 13.973 6.005 11.9857 7.06363 10.2571C8.12226 8.5284 9.63737 7.12539 11.4421 6.2025ZM29.4421 16C29.4431 18.8539 28.505 21.6288 26.7724 23.8967C25.0398 26.1645 22.6091 27.7991 19.8553 28.5484C17.1015 29.2977 14.1777 29.12 11.5349 28.0427C8.89215 26.9655 6.67731 25.0485 5.23214 22.5875C5.16477 22.4738 5.1206 22.3479 5.10217 22.2171C5.08375 22.0862 5.09144 21.953 5.12479 21.8252C5.15815 21.6973 5.21652 21.5774 5.29652 21.4722C5.37652 21.367 5.47657 21.2788 5.59089 21.2125L15.4421 15.4788V4C15.4421 3.73478 15.5475 3.48043 15.735 3.29289C15.9226 3.10536 16.1769 3 16.4421 3C18.7107 3.00116 20.9396 3.59567 22.9074 4.72451C24.8751 5.85335 26.5135 7.47725 27.6596 9.435C27.6734 9.455 27.6859 9.475 27.6984 9.49625C27.7109 9.5175 27.7234 9.5425 27.7346 9.565C28.8563 11.524 29.445 13.7427 29.4421 16Z" fill="#038C38"/>
</svg>
