<svg width="24" height="25" viewBox="0 0 24 25" fill="none" xmlns="http://www.w3.org/2000/svg">
<path d="M21.6188 5.14346C21.5033 4.87675 21.312 4.64986 21.0687 4.49101C20.8253 4.33216 20.5406 4.24836 20.25 4.25002H3.75001C3.45969 4.2506 3.17578 4.3354 2.93272 4.49416C2.68965 4.65291 2.49788 4.87879 2.38066 5.14438C2.26345 5.40998 2.22582 5.70389 2.27236 5.99045C2.31889 6.27701 2.44758 6.54391 2.64282 6.75877L2.65032 6.76721L9.00001 13.5472V20.75C8.99994 21.0215 9.07356 21.2879 9.213 21.5208C9.35244 21.7538 9.55249 21.9445 9.79181 22.0727C10.0311 22.2008 10.3007 22.2617 10.5719 22.2486C10.8431 22.2356 11.1056 22.1493 11.3316 21.9988L14.3316 19.9981C14.5372 19.8612 14.7058 19.6755 14.8225 19.4576C14.9391 19.2398 15.0001 18.9965 15 18.7494V13.5472L21.3506 6.76721L21.3581 6.75877C21.5554 6.54489 21.6854 6.27764 21.7317 5.99037C21.7781 5.7031 21.7388 5.40854 21.6188 5.14346ZM13.7044 12.7419C13.5746 12.8795 13.5016 13.0609 13.5 13.25V18.7494L10.5 20.75V13.25C10.5001 13.0596 10.4277 12.8762 10.2975 12.7372L3.75001 5.75002H20.25L13.7044 12.7419Z" fill="#676767"/>
</svg>
