<svg width="33" height="33" viewBox="0 0 33 33" fill="none" xmlns="http://www.w3.org/2000/svg">
<path d="M29.4541 25.2844V30.4531C29.4541 30.7183 29.3487 30.9727 29.1612 31.1602C28.9737 31.3478 28.7193 31.4531 28.4541 31.4531C28.1889 31.4531 27.9345 31.3478 27.747 31.1602C27.5595 30.9727 27.4541 30.7183 27.4541 30.4531V25.2844C27.4494 24.0008 27.1807 22.732 26.6646 21.5567C26.1485 20.3815 25.396 19.3251 24.4541 18.4531V25.7469C24.4539 25.9621 24.3843 26.1715 24.2556 26.344C24.127 26.5165 23.9461 26.6428 23.7398 26.7043C23.5336 26.7658 23.313 26.7591 23.1109 26.6853C22.9088 26.6114 22.7359 26.4743 22.6179 26.2944L21.2829 24.2556C21.2729 24.2406 21.2629 24.2244 21.2541 24.2081C21.058 23.8618 20.7324 23.6077 20.3489 23.5015C19.9654 23.3953 19.5554 23.4458 19.2091 23.6419C18.8628 23.838 18.6086 24.1636 18.5024 24.5471C18.3963 24.9306 18.4468 25.3406 18.6429 25.6869L21.4091 29.9106C21.5543 30.1326 21.6054 30.4031 21.5511 30.6627C21.4969 30.9224 21.3417 31.1498 21.1197 31.295C20.8978 31.4402 20.6272 31.4913 20.3676 31.437C20.108 31.3828 19.8806 31.2276 19.7354 31.0056L16.9529 26.7556L16.9229 26.7081C16.4921 25.97 16.3464 25.0998 16.513 24.2616C16.6797 23.4233 17.1473 22.6751 17.8276 22.1579C18.508 21.6407 19.354 21.3902 20.2063 21.4538C21.0585 21.5174 21.8581 21.8907 22.4541 22.5031V8.45312H20.4541C20.1889 8.45312 19.9345 8.34777 19.747 8.16023C19.5595 7.97269 19.4541 7.71834 19.4541 7.45312C19.4541 7.18791 19.5595 6.93355 19.747 6.74602C19.9345 6.55848 20.1889 6.45312 20.4541 6.45312H22.4541C22.9845 6.45312 23.4932 6.66384 23.8683 7.03891C24.2434 7.41398 24.4541 7.92269 24.4541 8.45312V15.9056C25.989 16.9428 27.2469 18.3396 28.1184 19.9743C28.9899 21.6089 29.4484 23.4319 29.4541 25.2844ZM11.4541 7.45312C11.4541 7.18791 11.3487 6.93355 11.1612 6.74602C10.9737 6.55848 10.7193 6.45312 10.4541 6.45312H8.4541C7.92367 6.45312 7.41496 6.66384 7.03989 7.03891C6.66482 7.41398 6.4541 7.92269 6.4541 8.45312V25.4531C6.4541 25.7183 6.55946 25.9727 6.74699 26.1602C6.93453 26.3478 7.18889 26.4531 7.4541 26.4531C7.71932 26.4531 7.97367 26.3478 8.16121 26.1602C8.34874 25.9727 8.4541 25.7183 8.4541 25.4531V8.45312H10.4541C10.7193 8.45312 10.9737 8.34777 11.1612 8.16023C11.3487 7.97269 11.4541 7.71834 11.4541 7.45312ZM20.1616 12.7456C20.0687 12.6526 19.9584 12.5789 19.837 12.5286C19.7156 12.4782 19.5855 12.4523 19.4541 12.4523C19.3227 12.4523 19.1926 12.4782 19.0712 12.5286C18.9498 12.5789 18.8395 12.6526 18.7466 12.7456L16.4541 15.0394V2.45312C16.4541 2.18791 16.3487 1.93355 16.1612 1.74602C15.9737 1.55848 15.7193 1.45313 15.4541 1.45312C15.1889 1.45313 14.9345 1.55848 14.747 1.74602C14.5595 1.93355 14.4541 2.18791 14.4541 2.45312V15.0394L12.1616 12.7456C11.974 12.558 11.7195 12.4526 11.4541 12.4526C11.1887 12.4526 10.9342 12.558 10.7466 12.7456C10.559 12.9333 10.4535 13.1878 10.4535 13.4531C10.4535 13.7185 10.559 13.973 10.7466 14.1606L14.7466 18.1606C14.8395 18.2536 14.9498 18.3274 15.0712 18.3777C15.1926 18.428 15.3227 18.4539 15.4541 18.4539C15.5855 18.4539 15.7156 18.428 15.837 18.3777C15.9584 18.3274 16.0687 18.2536 16.1616 18.1606L20.1616 14.1606C20.2546 14.0678 20.3283 13.9575 20.3787 13.8361C20.429 13.7147 20.4549 13.5845 20.4549 13.4531C20.4549 13.3217 20.429 13.1916 20.3787 13.0702C20.3283 12.9488 20.2546 12.8385 20.1616 12.7456Z" fill="#7A7A7A"/>
</svg>
