<svg width="26" height="26" viewBox="0 0 26 26" fill="none" xmlns="http://www.w3.org/2000/svg">
<path d="M22.491 4.0818C22.4823 3.93272 22.4192 3.79203 22.3136 3.68643C22.208 3.58084 22.0673 3.51769 21.9182 3.50899C14.2624 3.05805 8.13922 5.35336 5.53821 9.64844C3.76696 12.5724 3.83602 16.0266 5.72 19.4188L3.63188 21.5069C3.57201 21.5627 3.52399 21.6299 3.49068 21.7047C3.45737 21.7794 3.43947 21.8601 3.43802 21.942C3.43658 22.0238 3.45163 22.105 3.48228 22.1809C3.51293 22.2568 3.55854 22.3257 3.61641 22.3836C3.67427 22.4415 3.7432 22.4871 3.81908 22.5177C3.89496 22.5484 3.97623 22.5634 4.05805 22.562C4.13987 22.5605 4.22057 22.5426 4.29531 22.5093C4.37006 22.476 4.43734 22.428 4.49313 22.3681L6.58125 20.28C8.33524 21.254 10.1055 21.7435 11.8107 21.7435C13.4137 21.7442 14.9855 21.3005 16.3516 20.4618C20.6466 17.8608 22.9409 11.7376 22.491 4.0818ZM15.7209 19.4177C13.2752 20.8985 10.3746 20.8772 7.4811 19.3781L16.6816 10.1776C16.7893 10.0621 16.8479 9.90928 16.8451 9.75141C16.8423 9.59354 16.7784 9.44291 16.6667 9.33126C16.5551 9.21962 16.4044 9.15566 16.2466 9.15288C16.0887 9.15009 15.9359 9.20869 15.8204 9.31633L6.61985 18.5189C5.12078 15.6254 5.09641 12.7298 6.58024 10.2791C8.88367 6.47766 14.363 4.40883 21.3068 4.69828C21.5912 11.637 19.5223 17.1173 15.7209 19.4198V19.4177Z" fill="#038C38"/>
</svg>
