<svg width="24" height="24" viewBox="0 0 24 24" fill="none" xmlns="http://www.w3.org/2000/svg">
<path d="M19.5 3.75001H15.675C15.5029 2.90229 15.043 2.14015 14.3732 1.59272C13.7034 1.0453 12.865 0.746246 12 0.746246C11.135 0.746246 10.2966 1.0453 9.62681 1.59272C8.95705 2.14015 8.49714 2.90229 8.325 3.75001H4.5C4.30109 3.75001 4.11032 3.82902 3.96967 3.96968C3.82902 4.11033 3.75 4.30109 3.75 4.50001C3.75 4.69892 3.82902 4.88968 3.96967 5.03034C4.11032 5.17099 4.30109 5.25001 4.5 5.25001H8.325C8.48759 6.04109 8.90123 6.75854 9.50437 7.29563C8.45977 7.77442 7.5744 8.54276 6.95327 9.50952C6.33214 10.4763 6.0013 11.6009 6 12.75V18.75C6 19.1478 6.15804 19.5294 6.43934 19.8107C6.72064 20.092 7.10218 20.25 7.5 20.25H9C9 21.0457 9.31607 21.8087 9.87868 22.3713C10.4413 22.9339 11.2044 23.25 12 23.25C12.7956 23.25 13.5587 22.9339 14.1213 22.3713C14.6839 21.8087 15 21.0457 15 20.25H16.5C16.8978 20.25 17.2794 20.092 17.5607 19.8107C17.842 19.5294 18 19.1478 18 18.75V12.75C17.9987 11.6009 17.6679 10.4763 17.0467 9.50952C16.4256 8.54276 15.5402 7.77442 14.4956 7.29563C15.0988 6.75854 15.5124 6.04109 15.675 5.25001H19.5C19.6989 5.25001 19.8897 5.17099 20.0303 5.03034C20.171 4.88968 20.25 4.69892 20.25 4.50001C20.25 4.30109 20.171 4.11033 20.0303 3.96968C19.8897 3.82902 19.6989 3.75001 19.5 3.75001ZM13.5 20.25C13.5 20.6478 13.342 21.0294 13.0607 21.3107C12.7794 21.592 12.3978 21.75 12 21.75C11.6022 21.75 11.2206 21.592 10.9393 21.3107C10.658 21.0294 10.5 20.6478 10.5 20.25V15.75C10.5 15.3522 10.658 14.9707 10.9393 14.6893C11.2206 14.408 11.6022 14.25 12 14.25C12.3978 14.25 12.7794 14.408 13.0607 14.6893C13.342 14.9707 13.5 15.3522 13.5 15.75V20.25ZM16.5 12.75V18.75H15V15.75C15 14.9544 14.6839 14.1913 14.1213 13.6287C13.5587 13.0661 12.7956 12.75 12 12.75C11.2044 12.75 10.4413 13.0661 9.87868 13.6287C9.31607 14.1913 9 14.9544 9 15.75V18.75H7.5V12.75C7.5 11.5565 7.97411 10.4119 8.81802 9.56803C9.66193 8.72411 10.8065 8.25001 12 8.25001C13.1935 8.25001 14.3381 8.72411 15.182 9.56803C16.0259 10.4119 16.5 11.5565 16.5 12.75ZM9.75 4.50001C9.75 4.055 9.88196 3.61998 10.1292 3.24997C10.3764 2.87996 10.7278 2.59157 11.139 2.42128C11.5501 2.25098 12.0025 2.20642 12.439 2.29324C12.8754 2.38006 13.2763 2.59435 13.591 2.90902C13.9057 3.22368 14.12 3.6246 14.2068 4.06105C14.2936 4.49751 14.249 4.94991 14.0787 5.36104C13.9084 5.77218 13.62 6.12358 13.25 6.37081C12.88 6.61805 12.445 6.75001 12 6.75001C11.4033 6.75001 10.831 6.51295 10.409 6.091C9.98705 5.66904 9.75 5.09674 9.75 4.50001Z" fill="#FFBB38"/>
</svg>




