<svg width="45" height="45" viewBox="0 0 45 45" fill="none" xmlns="http://www.w3.org/2000/svg">
<rect width="45" height="45" rx="15" fill="#FFF5D9"/>
<path d="M29.5 14.75H25.675C25.5029 13.9023 25.043 13.1401 24.3732 12.5927C23.7034 12.0453 22.865 11.7462 22 11.7462C21.135 11.7462 20.2966 12.0453 19.6268 12.5927C18.957 13.1401 18.4971 13.9023 18.325 14.75H14.5C14.3011 14.75 14.1103 14.829 13.9697 14.9697C13.829 15.1103 13.75 15.3011 13.75 15.5C13.75 15.6989 13.829 15.8897 13.9697 16.0303C14.1103 16.171 14.3011 16.25 14.5 16.25H18.325C18.4876 17.0411 18.9012 17.7585 19.5044 18.2956C18.4598 18.7744 17.5744 19.5428 16.9533 20.5095C16.3321 21.4763 16.0013 22.6009 16 23.75V29.75C16 30.1478 16.158 30.5294 16.4393 30.8107C16.7206 31.092 17.1022 31.25 17.5 31.25H19C19 32.0457 19.3161 32.8087 19.8787 33.3713C20.4413 33.9339 21.2044 34.25 22 34.25C22.7956 34.25 23.5587 33.9339 24.1213 33.3713C24.6839 32.8087 25 32.0457 25 31.25H26.5C26.8978 31.25 27.2794 31.092 27.5607 30.8107C27.842 30.5294 28 30.1478 28 29.75V23.75C27.9987 22.6009 27.6679 21.4763 27.0467 20.5095C26.4256 19.5428 25.5402 18.7744 24.4956 18.2956C25.0988 17.7585 25.5124 17.0411 25.675 16.25H29.5C29.6989 16.25 29.8897 16.171 30.0303 16.0303C30.171 15.8897 30.25 15.6989 30.25 15.5C30.25 15.3011 30.171 15.1103 30.0303 14.9697C29.8897 14.829 29.6989 14.75 29.5 14.75ZM23.5 31.25C23.5 31.6478 23.342 32.0294 23.0607 32.3107C22.7794 32.592 22.3978 32.75 22 32.75C21.6022 32.75 21.2206 32.592 20.9393 32.3107C20.658 32.0294 20.5 31.6478 20.5 31.25V26.75C20.5 26.3522 20.658 25.9707 20.9393 25.6893C21.2206 25.408 21.6022 25.25 22 25.25C22.3978 25.25 22.7794 25.408 23.0607 25.6893C23.342 25.9707 23.5 26.3522 23.5 26.75V31.25ZM26.5 23.75V29.75H25V26.75C25 25.9544 24.6839 25.1913 24.1213 24.6287C23.5587 24.0661 22.7956 23.75 22 23.75C21.2044 23.75 20.4413 24.0661 19.8787 24.6287C19.3161 25.1913 19 25.9544 19 26.75V29.75H17.5V23.75C17.5 22.5565 17.9741 21.4119 18.818 20.568C19.6619 19.7241 20.8065 19.25 22 19.25C23.1935 19.25 24.3381 19.7241 25.182 20.568C26.0259 21.4119 26.5 22.5565 26.5 23.75ZM19.75 15.5C19.75 15.055 19.882 14.62 20.1292 14.25C20.3764 13.88 20.7278 13.5916 21.139 13.4213C21.5501 13.251 22.0025 13.2064 22.439 13.2932C22.8754 13.3801 23.2763 13.5943 23.591 13.909C23.9057 14.2237 24.12 14.6246 24.2068 15.0611C24.2936 15.4975 24.249 15.9499 24.0787 16.361C23.9084 16.7722 23.62 17.1236 23.25 17.3708C22.88 17.618 22.445 17.75 22 17.75C21.4033 17.75 20.831 17.513 20.409 17.091C19.9871 16.669 19.75 16.0967 19.75 15.5Z" fill="#FFBB38"/>
</svg>
