<svg width="33" height="32" viewBox="0 0 33 32" fill="none" xmlns="http://www.w3.org/2000/svg">
<path d="M26.7024 5.00013H21.6024C21.3729 3.86984 20.7597 2.85365 19.8667 2.12375C18.9736 1.39385 17.8557 0.995117 16.7024 0.995117C15.549 0.995117 14.4311 1.39385 13.5381 2.12375C12.6451 2.85365 12.0319 3.86984 11.8024 5.00013H6.70239C6.43718 5.00013 6.18282 5.10549 5.99529 5.29302C5.80775 5.48056 5.70239 5.73491 5.70239 6.00013C5.70239 6.26535 5.80775 6.5197 5.99529 6.70724C6.18282 6.89477 6.43718 7.00013 6.70239 7.00013H11.8024C12.0192 8.05491 12.5707 9.01151 13.3749 9.72763C11.9821 10.366 10.8016 11.3905 9.97342 12.6795C9.14524 13.9685 8.70413 15.468 8.70239 17.0001V25.0001C8.70239 25.5306 8.91311 26.0393 9.28818 26.4143C9.66325 26.7894 10.172 27.0001 10.7024 27.0001H12.7024C12.7024 28.061 13.1238 29.0784 13.874 29.8286C14.6241 30.5787 15.6415 31.0001 16.7024 31.0001C17.7633 31.0001 18.7807 30.5787 19.5308 29.8286C20.281 29.0784 20.7024 28.061 20.7024 27.0001H22.7024C23.2328 27.0001 23.7415 26.7894 24.1166 26.4143C24.4917 26.0393 24.7024 25.5306 24.7024 25.0001V17.0001C24.7007 15.468 24.2595 13.9685 23.4314 12.6795C22.6032 11.3905 21.4227 10.366 20.0299 9.72763C20.8341 9.01151 21.3856 8.05491 21.6024 7.00013H26.7024C26.9676 7.00013 27.222 6.89477 27.4095 6.70724C27.597 6.5197 27.7024 6.26535 27.7024 6.00013C27.7024 5.73491 27.597 5.48056 27.4095 5.29302C27.222 5.10549 26.9676 5.00013 26.7024 5.00013ZM18.7024 27.0001C18.7024 27.5306 18.4917 28.0393 18.1166 28.4143C17.7415 28.7894 17.2328 29.0001 16.7024 29.0001C16.172 29.0001 15.6633 28.7894 15.2882 28.4143C14.9131 28.0393 14.7024 27.5306 14.7024 27.0001V21.0001C14.7024 20.4697 14.9131 19.961 15.2882 19.5859C15.6633 19.2108 16.172 19.0001 16.7024 19.0001C17.2328 19.0001 17.7415 19.2108 18.1166 19.5859C18.4917 19.961 18.7024 20.4697 18.7024 21.0001V27.0001ZM22.7024 17.0001V25.0001H20.7024V21.0001C20.7024 19.9393 20.281 18.9218 19.5308 18.1717C18.7807 17.4216 17.7633 17.0001 16.7024 17.0001C15.6415 17.0001 14.6241 17.4216 13.874 18.1717C13.1238 18.9218 12.7024 19.9393 12.7024 21.0001V25.0001H10.7024V17.0001C10.7024 15.4088 11.3345 13.8827 12.4598 12.7575C13.585 11.6323 15.1111 11.0001 16.7024 11.0001C18.2937 11.0001 19.8198 11.6323 20.945 12.7575C22.0703 13.8827 22.7024 15.4088 22.7024 17.0001ZM13.7024 6.00013C13.7024 5.40679 13.8783 4.82677 14.208 4.33342C14.5376 3.84007 15.0062 3.45555 15.5543 3.22849C16.1025 3.00143 16.7057 2.94202 17.2877 3.05777C17.8696 3.17353 18.4042 3.45925 18.8237 3.87881C19.2433 4.29837 19.529 4.83292 19.6447 5.41486C19.7605 5.9968 19.7011 6.6 19.474 7.14818C19.247 7.69636 18.8624 8.16489 18.3691 8.49454C17.8758 8.82418 17.2957 9.00013 16.7024 9.00013C15.9067 9.00013 15.1437 8.68406 14.5811 8.12145C14.0185 7.55884 13.7024 6.79578 13.7024 6.00013Z" fill="#7A7A7A"/>
</svg>
