<svg width="17" height="16" viewBox="0 0 17 16" fill="none" xmlns="http://www.w3.org/2000/svg">
<path d="M12.9517 10.5C12.5083 10.5004 12.0775 10.6479 11.7269 10.9193C11.3763 11.1908 11.1256 11.5708 11.0142 12H4.95166C4.42123 12 3.91252 11.7893 3.53745 11.4142C3.16237 11.0391 2.95166 10.5304 2.95166 10C2.95166 9.46957 3.16237 8.96086 3.53745 8.58579C3.91252 8.21071 4.42123 8 4.95166 8H10.9517C11.6147 8 12.2506 7.73661 12.7194 7.26777C13.1883 6.79893 13.4517 6.16304 13.4517 5.5C13.4517 4.83696 13.1883 4.20107 12.7194 3.73223C12.2506 3.26339 11.6147 3 10.9517 3H4.95166C4.81905 3 4.69187 3.05268 4.59811 3.14645C4.50434 3.24021 4.45166 3.36739 4.45166 3.5C4.45166 3.63261 4.50434 3.75979 4.59811 3.85355C4.69187 3.94732 4.81905 4 4.95166 4H10.9517C11.3495 4 11.731 4.15804 12.0123 4.43934C12.2936 4.72064 12.4517 5.10218 12.4517 5.5C12.4517 5.89782 12.2936 6.27936 12.0123 6.56066C11.731 6.84196 11.3495 7 10.9517 7H4.95166C4.15601 7 3.39295 7.31607 2.83034 7.87868C2.26773 8.44129 1.95166 9.20435 1.95166 10C1.95166 10.7956 2.26773 11.5587 2.83034 12.1213C3.39295 12.6839 4.15601 13 4.95166 13H11.0142C11.1077 13.3621 11.3009 13.6908 11.5718 13.9487C11.8427 14.2066 12.1805 14.3833 12.5468 14.4588C12.9131 14.5343 13.2933 14.5056 13.6441 14.3759C13.9949 14.2462 14.3024 14.0208 14.5315 13.7251C14.7606 13.4295 14.9022 13.0756 14.9403 12.7035C14.9783 12.3314 14.9113 11.9561 14.7467 11.6202C14.5822 11.2843 14.3268 11.0013 14.0095 10.8033C13.6922 10.6053 13.3257 10.5002 12.9517 10.5ZM12.9517 13.5C12.7539 13.5 12.5605 13.4414 12.3961 13.3315C12.2316 13.2216 12.1035 13.0654 12.0278 12.8827C11.9521 12.7 11.9323 12.4989 11.9709 12.3049C12.0095 12.1109 12.1047 11.9327 12.2446 11.7929C12.3844 11.653 12.5626 11.5578 12.7566 11.5192C12.9506 11.4806 13.1516 11.5004 13.3343 11.5761C13.5171 11.6518 13.6732 11.78 13.7831 11.9444C13.893 12.1089 13.9517 12.3022 13.9517 12.5C13.9517 12.7652 13.8463 13.0196 13.6588 13.2071C13.4712 13.3946 13.2169 13.5 12.9517 13.5Z" fill="#676767"/>
</svg>
