<svg width="33" height="32" viewBox="0 0 33 32" fill="none" xmlns="http://www.w3.org/2000/svg">
<path d="M11.008 17C11.008 17.7537 10.7646 18.4872 10.3142 19.0914C9.86374 19.6957 9.23029 20.1384 8.50804 20.3538V27C8.50804 27.2652 8.40268 27.5196 8.21514 27.7071C8.02761 27.8946 7.77325 28 7.50804 28C7.24282 28 6.98847 27.8946 6.80093 27.7071C6.61339 27.5196 6.50804 27.2652 6.50804 27V20.3538C5.786 20.1382 5.15281 19.6954 4.70261 19.0912C4.2524 18.4869 4.00922 17.7535 4.00922 17C4.00922 16.2465 4.2524 15.5131 4.70261 14.9088C5.15281 14.3046 5.786 13.8618 6.50804 13.6462V5C6.50804 4.73478 6.61339 4.48043 6.80093 4.29289C6.98847 4.10536 7.24282 4 7.50804 4C7.77325 4 8.02761 4.10536 8.21514 4.29289C8.40268 4.48043 8.50804 4.73478 8.50804 5V13.6462C9.23029 13.8616 9.86374 14.3043 10.3142 14.9086C10.7646 15.5128 11.008 16.2463 11.008 17ZM17.508 7.64625V5C17.508 4.73478 17.4027 4.48043 17.2151 4.29289C17.0276 4.10536 16.7733 4 16.508 4C16.2428 4 15.9885 4.10536 15.8009 4.29289C15.6134 4.48043 15.508 4.73478 15.508 5V7.64625C14.786 7.86179 14.1528 8.30461 13.7026 8.90884C13.2524 9.51308 13.0092 10.2465 13.0092 11C13.0092 11.7535 13.2524 12.4869 13.7026 13.0912C14.1528 13.6954 14.786 14.1382 15.508 14.3538V27C15.508 27.2652 15.6134 27.5196 15.8009 27.7071C15.9885 27.8946 16.2428 28 16.508 28C16.7733 28 17.0276 27.8946 17.2151 27.7071C17.4027 27.5196 17.508 27.2652 17.508 27V14.3538C18.2301 14.1382 18.8633 13.6954 19.3135 13.0912C19.7637 12.4869 20.0069 11.7535 20.0069 11C20.0069 10.2465 19.7637 9.51308 19.3135 8.90884C18.8633 8.30461 18.2301 7.86179 17.508 7.64625ZM26.508 17.6462V5C26.508 4.73478 26.4027 4.48043 26.2151 4.29289C26.0276 4.10536 25.7733 4 25.508 4C25.2428 4 24.9885 4.10536 24.8009 4.29289C24.6134 4.48043 24.508 4.73478 24.508 5V17.6462C23.786 17.8618 23.1528 18.3046 22.7026 18.9088C22.2524 19.5131 22.0092 20.2465 22.0092 21C22.0092 21.7535 22.2524 22.4869 22.7026 23.0912C23.1528 23.6954 23.786 24.1382 24.508 24.3538V27C24.508 27.2652 24.6134 27.5196 24.8009 27.7071C24.9885 27.8946 25.2428 28 25.508 28C25.7733 28 26.0276 27.8946 26.2151 27.7071C26.4027 27.5196 26.508 27.2652 26.508 27V24.3538C27.2301 24.1382 27.8633 23.6954 28.3135 23.0912C28.7637 22.4869 29.0069 21.7535 29.0069 21C29.0069 20.2465 28.7637 19.5131 28.3135 18.9088C27.8633 18.3046 27.2301 17.8618 26.508 17.6462Z" fill="#7A7A7A"/>
</svg>
