<svg width="17" height="16" viewBox="0 0 17 16" fill="none" xmlns="http://www.w3.org/2000/svg">
<path d="M7.68665 9.735L13.6866 3.735C13.7577 3.66876 13.8518 3.6327 13.9489 3.63441C14.0461 3.63613 14.1388 3.67548 14.2075 3.74419C14.2762 3.8129 14.3155 3.90559 14.3172 4.00274C14.319 4.09989 14.2829 4.19391 14.2166 4.265L8.21665 10.265C8.14556 10.3312 8.05154 10.3673 7.95439 10.3656C7.85724 10.3639 7.76454 10.3245 7.69584 10.2558C7.62713 10.1871 7.58778 10.0944 7.58606 9.99726C7.58435 9.90011 7.62041 9.80609 7.68665 9.735ZM8.45165 5.375C8.89958 5.37455 9.3446 5.44717 9.76915 5.59C9.86347 5.62174 9.96653 5.61472 10.0557 5.57047C10.1448 5.52622 10.2127 5.44838 10.2445 5.35406C10.2762 5.25974 10.2692 5.15668 10.2249 5.06754C10.1807 4.9784 10.1028 4.91049 10.0085 4.87875C9.23162 4.61687 8.40121 4.55515 7.59412 4.69931C6.78704 4.84347 6.02934 5.18885 5.39114 5.7035C4.75294 6.21815 4.25484 6.88545 3.94292 7.64366C3.631 8.40186 3.51535 9.22649 3.60665 10.0413C3.61685 10.1334 3.66081 10.2185 3.73006 10.2801C3.79932 10.3418 3.88894 10.3756 3.98165 10.375C3.99559 10.3759 4.00958 10.3759 4.02352 10.375C4.12229 10.364 4.21266 10.3143 4.27477 10.2367C4.33688 10.1591 4.36565 10.06 4.35477 9.96125C4.33716 9.80811 4.32777 9.65414 4.32665 9.5C4.32797 8.40639 4.76299 7.35795 5.53629 6.58465C6.3096 5.81134 7.35804 5.37632 8.45165 5.375ZM14.5766 6.36875C14.5542 6.32492 14.5233 6.28595 14.4857 6.25407C14.4482 6.22218 14.4047 6.198 14.3578 6.18291C14.3109 6.16782 14.2615 6.16212 14.2124 6.16612C14.1633 6.17013 14.1155 6.18376 14.0716 6.20625C14.0278 6.22874 13.9888 6.25964 13.957 6.29719C13.9251 6.33474 13.9009 6.3782 13.8858 6.4251C13.8707 6.47199 13.865 6.5214 13.869 6.57049C13.873 6.61959 13.8867 6.66742 13.9091 6.71125C14.2868 7.45234 14.51 8.26235 14.5655 9.09224C14.6209 9.92214 14.5073 10.7547 14.2316 11.5394C14.2233 11.5644 14.2073 11.5862 14.1859 11.6016C14.1644 11.617 14.1387 11.6252 14.1123 11.625H2.7929C2.76636 11.6243 2.74068 11.6155 2.71932 11.5998C2.69797 11.584 2.68198 11.562 2.67352 11.5369C2.35118 10.613 2.25432 9.62551 2.39102 8.65664C2.52772 7.68776 2.89402 6.76559 3.45938 5.96699C4.02474 5.16839 4.7728 4.51648 5.6412 4.06561C6.5096 3.61474 7.47318 3.37795 8.45165 3.375H8.5079C9.45846 3.38107 10.3943 3.61058 11.2398 4.045C11.2838 4.06753 11.3318 4.08117 11.381 4.08515C11.4303 4.08913 11.4799 4.08337 11.5269 4.06819C11.5739 4.05302 11.6175 4.02872 11.6552 3.9967C11.6928 3.96468 11.7238 3.92556 11.7463 3.88156C11.7689 3.83757 11.7825 3.78957 11.7865 3.7403C11.7905 3.69104 11.7847 3.64147 11.7695 3.59443C11.7544 3.54739 11.7301 3.5038 11.698 3.46615C11.666 3.4285 11.6269 3.39753 11.5829 3.375C10.6329 2.88783 9.58172 2.63091 8.51415 2.625H8.45165C7.3524 2.62554 6.26929 2.88952 5.29307 3.39481C4.31684 3.90011 3.47593 4.632 2.84078 5.52918C2.20563 6.42636 1.79474 7.46269 1.64255 8.55134C1.49035 9.64 1.60127 10.7493 1.96602 11.7863C2.02618 11.9578 2.13796 12.1064 2.28602 12.2119C2.43408 12.3173 2.61115 12.3743 2.7929 12.375H14.1098C14.2911 12.3746 14.4678 12.318 14.6157 12.2132C14.7637 12.1083 14.8755 11.9603 14.936 11.7894C15.2462 10.9086 15.3744 9.97397 15.3126 9.04218C15.2508 8.1104 15.0004 7.20088 14.5766 6.36875Z" fill="#676767"/>
</svg>
