<svg width="32" height="33" viewBox="0 0 32 33" fill="none" xmlns="http://www.w3.org/2000/svg">
<path d="M12.0325 5.21302C11.9675 4.95696 12.0065 4.68559 12.141 4.45817C12.2754 4.23076 12.4944 4.06578 12.75 3.99927C14.8818 3.44946 17.1182 3.44946 19.25 3.99927C19.4861 4.05972 19.6921 4.20433 19.8291 4.40592C19.9661 4.60751 20.0247 4.8522 19.994 5.09399C19.9633 5.33579 19.8454 5.55805 19.6623 5.71899C19.4793 5.87994 19.2438 5.9685 19 5.96802C18.9157 5.96758 18.8317 5.95666 18.75 5.93552C16.9463 5.46979 15.0538 5.46979 13.25 5.93552C13.1226 5.96817 12.9901 5.97537 12.8599 5.95672C12.7297 5.93806 12.6045 5.89392 12.4914 5.8268C12.3783 5.75969 12.2796 5.67094 12.2008 5.56561C12.1221 5.46029 12.0649 5.34047 12.0325 5.21302ZM4.16877 14.338C4.29533 14.3732 4.42758 14.383 4.55796 14.3671C4.68834 14.3511 4.81429 14.3096 4.92863 14.245C5.04297 14.1803 5.14345 14.0938 5.22433 13.9903C5.30521 13.8868 5.36491 13.7683 5.40002 13.6418C5.89825 11.8472 6.84456 10.2088 8.15002 8.88052C8.32093 8.68881 8.41153 8.43869 8.40304 8.18199C8.39455 7.9253 8.28762 7.68171 8.10441 7.50172C7.9212 7.32172 7.67576 7.21912 7.41896 7.21517C7.16215 7.21122 6.91367 7.30624 6.72502 7.48052C5.18275 9.04999 4.06445 10.9855 3.47502 13.1055C3.43963 13.232 3.42951 13.3642 3.44522 13.4946C3.46093 13.625 3.50218 13.751 3.5666 13.8655C3.63103 13.9799 3.71736 14.0806 3.82068 14.1616C3.924 14.2427 4.04228 14.3027 4.16877 14.338ZM18.75 27.2405C16.9463 27.7062 15.0538 27.7062 13.25 27.2405C12.9948 27.1788 12.7256 27.2199 12.5004 27.3549C12.2752 27.49 12.1122 27.7082 12.0466 27.9624C11.9809 28.2167 12.0179 28.4865 12.1495 28.7137C12.2811 28.9409 12.4968 29.1072 12.75 29.1768C14.8818 29.7266 17.1182 29.7266 19.25 29.1768C19.5032 29.1072 19.7189 28.9409 19.8505 28.7137C19.9821 28.4865 20.0191 28.2167 19.9534 27.9624C19.8878 27.7082 19.7248 27.49 19.4996 27.3549C19.2745 27.2199 19.0052 27.1788 18.75 27.2405ZM26.6 13.6443C26.671 13.8999 26.8405 14.1168 27.0714 14.2474C27.3023 14.378 27.5757 14.4115 27.8313 14.3405C28.0869 14.2696 28.3038 14.1 28.4344 13.8691C28.565 13.6382 28.5985 13.3649 28.5275 13.1093C27.9377 10.9894 26.8194 9.05401 25.2775 7.48427C25.1864 7.38693 25.0767 7.3088 24.9549 7.25449C24.8331 7.20017 24.7017 7.17075 24.5684 7.16797C24.4351 7.16519 24.3026 7.1891 24.1786 7.23829C24.0547 7.28749 23.9418 7.36097 23.8467 7.45442C23.7516 7.54787 23.6761 7.6594 23.6248 7.78245C23.5734 7.9055 23.5471 8.03758 23.5476 8.17093C23.548 8.30427 23.5751 8.43618 23.6272 8.5589C23.6794 8.68162 23.7556 8.79267 23.8513 8.88552C25.1543 10.2143 26.0996 11.8514 26.5988 13.6443H26.6ZM28.53 20.068C27.8684 22.4532 26.5376 24.599 24.695 26.2518C24.581 26.3546 24.4449 26.4299 24.2972 26.4717C24.1495 26.5135 23.9941 26.5207 23.8431 26.4928C23.6922 26.4648 23.5496 26.4025 23.4266 26.3107C23.3036 26.2188 23.2034 26.0998 23.1338 25.963C22.4651 24.6455 21.4445 23.5389 20.1854 22.7659C18.9262 21.9929 17.4775 21.5837 16 21.5837C14.5225 21.5837 13.0739 21.9929 11.8147 22.7659C10.5555 23.5389 9.53498 24.6455 8.86627 25.963C8.79671 26.0997 8.69663 26.2186 8.57377 26.3104C8.45092 26.4023 8.30858 26.4646 8.15778 26.4927C8.00697 26.5207 7.85173 26.5137 7.70408 26.4721C7.55643 26.4306 7.42031 26.3556 7.30627 26.253C5.46357 24.5993 4.13281 22.4527 3.47127 20.0668C3.40049 19.8112 3.43415 19.5379 3.56483 19.3071C3.69552 19.0763 3.91254 18.9069 4.16814 18.8361C4.42375 18.7654 4.697 18.799 4.92778 18.9297C5.15857 19.0604 5.32799 19.2774 5.39877 19.533C5.84608 21.1491 6.65864 22.6408 7.77377 23.893C8.88953 22.2747 10.4598 21.0233 12.2863 20.2968C11.3062 19.5253 10.5909 18.4675 10.2399 17.2705C9.88897 16.0736 9.91975 14.7971 10.328 13.6185C10.7362 12.4399 11.5016 11.4178 12.5178 10.6944C13.5339 9.97098 14.7502 9.58225 15.9975 9.58225C17.2448 9.58225 18.4611 9.97098 19.4773 10.6944C20.4934 11.4178 21.2588 12.4399 21.667 13.6185C22.0753 14.7971 22.1061 16.0736 21.7551 17.2705C21.4041 18.4675 20.6888 19.5253 19.7088 20.2968C21.5352 21.0233 23.1055 22.2747 24.2213 23.893C25.3364 22.6408 26.149 21.1491 26.5963 19.533C26.6314 19.4065 26.6911 19.2881 26.772 19.1846C26.8529 19.0811 26.9534 18.9945 27.0677 18.9299C27.182 18.8652 27.308 18.8237 27.4383 18.8078C27.5687 18.7918 27.701 18.8016 27.8275 18.8368C27.9541 18.8719 28.0725 18.9316 28.176 19.0125C28.2795 19.0934 28.366 19.1939 28.4306 19.3082C28.4953 19.4225 28.5368 19.5485 28.5528 19.6788C28.5688 19.8092 28.5589 19.9415 28.5238 20.068H28.53ZM16 19.588C16.7911 19.588 17.5645 19.3534 18.2223 18.9139C18.8801 18.4744 19.3928 17.8497 19.6955 17.1187C19.9983 16.3878 20.0775 15.5836 19.9232 14.8077C19.7688 14.0317 19.3879 13.319 18.8284 12.7596C18.269 12.2002 17.5563 11.8192 16.7804 11.6649C16.0045 11.5105 15.2002 11.5897 14.4693 11.8925C13.7384 12.1952 13.1137 12.7079 12.6741 13.3657C12.2346 14.0235 12 14.7969 12 15.588C12 16.6489 12.4214 17.6663 13.1716 18.4164C13.9217 19.1666 14.9392 19.588 16 19.588Z" fill="#7A7A7A"/>
</svg>
