<svg width="23" height="30" viewBox="0 0 23 30" fill="none" xmlns="http://www.w3.org/2000/svg">
<path d="M21.3387 4.00004H16.2387C16.0092 2.86975 15.396 1.85356 14.503 1.12366C13.61 0.393757 12.4921 -0.00497437 11.3387 -0.00497437C10.1854 -0.00497437 9.0675 0.393757 8.17449 1.12366C7.28148 1.85356 6.66826 2.86975 6.43875 4.00004H1.33875C1.07353 4.00004 0.819175 4.1054 0.631639 4.29293C0.444102 4.48047 0.338745 4.73482 0.338745 5.00004C0.338745 5.26525 0.444102 5.51961 0.631639 5.70714C0.819175 5.89468 1.07353 6.00004 1.33875 6.00004H6.43875C6.65553 7.05482 7.20705 8.01142 8.01124 8.72754C6.61844 9.36593 5.43795 10.3904 4.60977 11.6794C3.78159 12.9684 3.34048 14.4679 3.33875 16V24C3.33875 24.5305 3.54946 25.0392 3.92453 25.4143C4.2996 25.7893 4.80831 26 5.33875 26H7.33875C7.33875 27.0609 7.76017 28.0783 8.51032 28.8285C9.26046 29.5786 10.2779 30 11.3387 30C12.3996 30 13.417 29.5786 14.1672 28.8285C14.9173 28.0783 15.3387 27.0609 15.3387 26H17.3387C17.8692 26 18.3779 25.7893 18.753 25.4143C19.128 25.0392 19.3387 24.5305 19.3387 24V16C19.337 14.4679 18.8959 12.9684 18.0677 11.6794C17.2395 10.3904 16.059 9.36593 14.6662 8.72754C15.4704 8.01142 16.022 7.05482 16.2387 6.00004H21.3387C21.604 6.00004 21.8583 5.89468 22.0459 5.70714C22.2334 5.51961 22.3387 5.26525 22.3387 5.00004C22.3387 4.73482 22.2334 4.48047 22.0459 4.29293C21.8583 4.1054 21.604 4.00004 21.3387 4.00004ZM13.3387 26C13.3387 26.5305 13.128 27.0392 12.753 27.4143C12.3779 27.7893 11.8692 28 11.3387 28C10.8083 28 10.2996 27.7893 9.92453 27.4143C9.54946 27.0392 9.33875 26.5305 9.33875 26V20C9.33875 19.4696 9.54946 18.9609 9.92453 18.5858C10.2996 18.2108 10.8083 18 11.3387 18C11.8692 18 12.3779 18.2108 12.753 18.5858C13.128 18.9609 13.3387 19.4696 13.3387 20V26ZM11.3387 8.00004C10.7454 8.00004 10.1654 7.82409 9.67203 7.49445C9.17869 7.1648 8.79417 6.69627 8.56711 6.14809C8.34004 5.59991 8.28063 4.99671 8.39639 4.41477C8.51215 3.83282 8.79787 3.29828 9.21742 2.87872C9.63698 2.45916 10.1715 2.17344 10.7535 2.05768C11.3354 1.94193 11.9386 2.00134 12.4868 2.2284C13.035 2.45546 13.5035 2.83998 13.8332 3.33333C14.1628 3.82667 14.3387 4.40669 14.3387 5.00004C14.3387 5.79569 14.0227 6.55875 13.4601 7.12136C12.8975 7.68397 12.1344 8.00004 11.3387 8.00004Z" fill="#038C38"/>
</svg>
