<svg width="12" height="13" viewBox="0 0 12 13" fill="none" xmlns="http://www.w3.org/2000/svg">
<path d="M5.625 6.875V4.25C5.625 4.15055 5.66451 4.05516 5.73484 3.98484C5.80517 3.91451 5.90055 3.875 6 3.875C6.09946 3.875 6.19484 3.91451 6.26517 3.98484C6.3355 4.05516 6.375 4.15055 6.375 4.25V6.875C6.375 6.97446 6.3355 7.06984 6.26517 7.14017C6.19484 7.2105 6.09946 7.25 6 7.25C5.90055 7.25 5.80517 7.2105 5.73484 7.14017C5.66451 7.06984 5.625 6.97446 5.625 6.875ZM10.875 4.79141V8.2086C10.8753 8.30712 10.856 8.40473 10.8183 8.49575C10.7806 8.58676 10.7251 8.66936 10.6552 8.73875L8.23875 11.1552C8.16936 11.2251 8.08676 11.2806 7.99575 11.3183C7.90473 11.356 7.80712 11.3753 7.7086 11.375H4.29141C4.19288 11.3753 4.09527 11.356 4.00426 11.3183C3.91325 11.2806 3.83065 11.2251 3.76125 11.1552L1.34485 8.73875C1.2749 8.66936 1.21944 8.58676 1.1817 8.49575C1.14396 8.40473 1.12469 8.30712 1.125 8.2086V4.79141C1.12469 4.69288 1.14396 4.59527 1.1817 4.50426C1.21944 4.41325 1.2749 4.33065 1.34485 4.26125L3.76125 1.84485C3.83065 1.7749 3.91325 1.71944 4.00426 1.6817C4.09527 1.64396 4.19288 1.62469 4.29141 1.625H7.7086C7.80712 1.62469 7.90473 1.64396 7.99575 1.6817C8.08676 1.71944 8.16936 1.7749 8.23875 1.84485L10.6552 4.26125C10.7251 4.33065 10.7806 4.41325 10.8183 4.50426C10.856 4.59527 10.8753 4.69288 10.875 4.79141ZM10.125 4.79141L7.7086 2.375H4.29141L1.875 4.79141V8.2086L4.29141 10.625H7.7086L10.125 8.2086V4.79141ZM6 8C5.88875 8 5.78 8.03299 5.6875 8.0948C5.59499 8.15661 5.5229 8.24446 5.48032 8.34724C5.43775 8.45003 5.42661 8.56313 5.44831 8.67224C5.47002 8.78136 5.52359 8.88158 5.60226 8.96025C5.68092 9.03892 5.78115 9.09249 5.89027 9.1142C5.99938 9.1359 6.11248 9.12476 6.21526 9.08219C6.31805 9.03961 6.4059 8.96751 6.46771 8.87501C6.52951 8.78251 6.5625 8.67376 6.5625 8.5625C6.5625 8.41332 6.50324 8.27025 6.39775 8.16476C6.29226 8.05927 6.14919 8 6 8Z" fill="#928F8F"/>
</svg>
